<?xml version="1.0" encoding="UTF-8" standalone="no"?>
<!-- Created with Inkscape (http://www.inkscape.org/) -->

<svg
   xmlns:dc="http://purl.org/dc/elements/1.1/"
   xmlns:cc="http://creativecommons.org/ns#"
   xmlns:rdf="http://www.w3.org/1999/02/22-rdf-syntax-ns#"
   xmlns:svg="http://www.w3.org/2000/svg"
   xmlns="http://www.w3.org/2000/svg"
   xmlns:xlink="http://www.w3.org/1999/xlink"
   xmlns:sodipodi="http://sodipodi.sourceforge.net/DTD/sodipodi-0.dtd"
   xmlns:inkscape="http://www.inkscape.org/namespaces/inkscape"
   version="1.0"
   width="170"
   height="170"
   id="svg2"
   inkscape:version="0.48.3.1 r9886"
   sodipodi:docname="berggreen.svg"
   style="enable-background:new">
  <metadata
     id="metadata38">
    <rdf:RDF>
      <cc:Work
         rdf:about="">
        <dc:format>image/svg+xml</dc:format>
        <dc:type
           rdf:resource="http://purl.org/dc/dcmitype/StillImage" />
        <dc:title></dc:title>
      </cc:Work>
    </rdf:RDF>
  </metadata>
  <sodipodi:namedview
     pagecolor="#ffffff"
     bordercolor="#666666"
     borderopacity="1"
     objecttolerance="10"
     gridtolerance="10"
     guidetolerance="10"
     inkscape:pageopacity="0"
     inkscape:pageshadow="2"
     inkscape:window-width="1239"
     inkscape:window-height="891"
     id="namedview36"
     showgrid="false"
     inkscape:zoom="2"
     inkscape:cx="63.03372"
     inkscape:cy="98.48736"
     inkscape:window-x="65"
     inkscape:window-y="24"
     inkscape:window-maximized="0"
     inkscape:current-layer="layer1" />
  <defs
     id="defs4">
    <linearGradient
       id="linearGradient3971">
      <stop
         id="stop3973"
         offset="0"
         style="stop-color:gray;stop-opacity:1" />
      <stop
         style="stop-color:#808080;stop-opacity:0.49803922;"
         offset="0.39866447"
         id="stop3975" />
      <stop
         id="stop3977"
         offset="1"
         style="stop-color:gray;stop-opacity:0" />
    </linearGradient>
    <linearGradient
       id="linearGradient11802">
      <stop
         style="stop-color:#f2f2f2;stop-opacity:1"
         offset="0"
         id="stop11804" />
      <stop
         style="stop-color:#f2f2f2;stop-opacity:0"
         offset="1"
         id="stop11806" />
    </linearGradient>
    <linearGradient
       id="linearGradient10907">
      <stop
         id="stop3909"
         offset="0"
         style="stop-color:#737373;stop-opacity:0.49803922;" />
      <stop
         style="stop-color:#666;stop-opacity:0"
         offset="1"
         id="stop10911" />
    </linearGradient>
    <linearGradient
       id="linearGradient7341">
      <stop
         style="stop-color:gray;stop-opacity:1"
         offset="0"
         id="stop7343" />
      <stop
         id="stop3969"
         offset="0.5"
         style="stop-color:#808080;stop-opacity:0.49803922;" />
      <stop
         style="stop-color:gray;stop-opacity:0"
         offset="1"
         id="stop7345" />
    </linearGradient>
    <linearGradient
       x1="91.107216"
       y1="170.33635"
       x2="206.29361"
       y2="103.38951"
       id="linearGradient7347"
       xlink:href="#linearGradient7341"
       gradientUnits="userSpaceOnUse" />
    <linearGradient
       x1="2.9193301"
       y1="200.81725"
       x2="67.882988"
       y2="137.17694"
       id="linearGradient10913"
       xlink:href="#linearGradient10907"
       gradientUnits="userSpaceOnUse" />
    <linearGradient
       x1="55.508488"
       y1="119.27718"
       x2="78.843262"
       y2="206.95937"
       id="linearGradient11808"
       xlink:href="#linearGradient11802"
       gradientUnits="userSpaceOnUse" />
    <linearGradient
       x1="91.107216"
       y1="170.33635"
       x2="206.29361"
       y2="103.38951"
       id="linearGradient11874"
       xlink:href="#linearGradient7341"
       gradientUnits="userSpaceOnUse" />
    <linearGradient
       x1="2.9193301"
       y1="200.81725"
       x2="67.882988"
       y2="137.17694"
       id="linearGradient11876"
       xlink:href="#linearGradient10907"
       gradientUnits="userSpaceOnUse" />
    <linearGradient
       x1="55.508488"
       y1="119.27718"
       x2="78.843262"
       y2="206.95937"
       id="linearGradient11878"
       xlink:href="#linearGradient11802"
       gradientUnits="userSpaceOnUse" />
    <linearGradient
       x1="2.9193301"
       y1="200.81725"
       x2="67.882988"
       y2="137.17694"
       id="linearGradient11890"
       xlink:href="#linearGradient10907"
       gradientUnits="userSpaceOnUse" />
    <linearGradient
       x1="55.508488"
       y1="119.27718"
       x2="78.843262"
       y2="206.95937"
       id="linearGradient11892"
       xlink:href="#linearGradient11802"
       gradientUnits="userSpaceOnUse" />
    <linearGradient
       x1="91.107216"
       y1="170.33635"
       x2="206.29361"
       y2="103.38951"
       id="linearGradient11894"
       xlink:href="#linearGradient7341"
       gradientUnits="userSpaceOnUse" />
    <linearGradient
       x1="91.107216"
       y1="170.33635"
       x2="206.29361"
       y2="103.38951"
       id="linearGradient11908"
       xlink:href="#linearGradient7341"
       gradientUnits="userSpaceOnUse" />
    <linearGradient
       x1="2.9193301"
       y1="200.81725"
       x2="67.882988"
       y2="137.17694"
       id="linearGradient11910"
       xlink:href="#linearGradient10907"
       gradientUnits="userSpaceOnUse" />
    <linearGradient
       x1="55.508488"
       y1="119.27718"
       x2="78.843262"
       y2="206.95937"
       id="linearGradient11912"
       xlink:href="#linearGradient11802"
       gradientUnits="userSpaceOnUse" />
    <filter
       inkscape:collect="always"
       id="filter3941"
       color-interpolation-filters="sRGB">
      <feGaussianBlur
         inkscape:collect="always"
         stdDeviation="0.40304234"
         id="feGaussianBlur3943" />
    </filter>
    <filter
       inkscape:collect="always"
       id="filter3953"
       color-interpolation-filters="sRGB">
      <feGaussianBlur
         inkscape:collect="always"
         stdDeviation="0.1129223"
         id="feGaussianBlur3955" />
    </filter>
    <linearGradient
       inkscape:collect="always"
       xlink:href="#linearGradient3971"
       id="linearGradient4032"
       gradientUnits="userSpaceOnUse"
       gradientTransform="translate(12.283632,0.348109)"
       x1="91.107216"
       y1="170.33635"
       x2="206.29361"
       y2="103.38951" />
    <linearGradient
       inkscape:collect="always"
       xlink:href="#linearGradient11802"
       id="linearGradient4034"
       gradientUnits="userSpaceOnUse"
       gradientTransform="matrix(1.0638315,0,0,1.0845089,4.0847888,-12.361947)"
       x1="55.508488"
       y1="119.27718"
       x2="78.843262"
       y2="206.95937" />
  </defs>
  <g
     inkscape:groupmode="layer"
     id="layer1"
     inkscape:label="vorderer Berg"
     style="display:inline"
     transform="translate(0,-45)"
     sodipodi:insensitive="true">
    <g
       id="g4017"
       transform="translate(2,-20)">
      <g
         id="g3073"
         style="display:inline">
        <g
           id="g11836"
           transform="matrix(1.0730146,0,0,1.0472122,3.8250485,-9.255608)"
           inkscape:transform-center-x="2.5"
           inkscape:transform-center-y="0.99854159">
          <path
             d="m 144.95847,207.17154 c -0.12573,-1.25563 -2.02851,-3.07136 -2.4749,-5.30336 -0.4992,-2.49598 -1.96544,-3.97261 -2.47491,-6.01047 -0.76774,-3.07097 -1.19452,-5.59506 -2.12134,-8.83893 -1.45563,-5.0947 -2.48472,-8.6867 -4.24269,-13.08162 -2.25547,-5.63868 -6.42147,-3.59301 -9.54604,-6.71759 -1.64289,-1.64289 -3.17111,-3.1711 -4.9498,-4.9498 -1.64467,-1.64466 -2.88637,-3.94704 -3.88913,-4.9498 -1.97234,-1.97234 -4.45199,-4.87531 -6.36403,-7.4247 -1.72759,-2.30345 -2.93625,-4.70403 -4.59625,-6.36403 -2.31707,-2.31707 -3.48758,-5.56093 -4.949797,-8.48537 -2.752549,-5.5051 -6.593289,-11.00309 -8.838931,-16.61719 -1.246275,-3.11569 -2.474901,-4.98588 -2.474901,-8.13182 0,-1.8864 -2.192203,-3.39435 -2.828458,-4.24269 -0.35304,-0.47072 -4.909929,-2.52169 -6.010473,-3.18201 -3.521025,-2.11262 -7.138248,-3.507194 -9.546045,-6.717589 -1.28898,-1.71864 -2.352017,-2.936248 -3.182015,-4.596244 -1.027958,-2.055916 -1.74681,-3.166283 -3.182015,-4.242687 -2.040946,-1.530709 -2.432853,-2.121344 -4.949801,-2.121344 -1.756885,0 -2.90639,4.398551 -3.535573,5.656916 -2.204414,4.408828 -1.434141,8.333486 -4.949801,12.728058 -3.084622,3.85578 -3.729073,6.58954 -7.424702,9.54605 -3.045819,2.43665 -5.372893,2.96752 -7.071145,6.36403 -1.901515,3.80303 -3.935647,7.87129 -6.010473,12.02094 -1.598659,3.19732 -2.772065,5.24697 -5.303358,7.77826 -2.870307,2.87031 -2.342385,7.2482 -3.182015,10.60672 -0.710147,2.84059 -5.648189,9.8647 -7.071145,15.55652 -0.724262,2.89705 -1.805236,6.43893 -3.182015,9.19249 -1.2361087,2.47221 -1.8325032,5.20867 -2.4749006,7.77826 -0.5579018,2.2316 -2.3268918,-2.35983 -3.8891296,3.88913 -0.9070276,3.62811 -2.0272376,7.04827 -2.8284579,10.25316 -0.51051765,2.04207 -0.3944814,4.49762 1.414229,4.9498 3.6998998,0.92497 1.3330901,1.96485 0.7071144,2.12134 -2.2780815,0.56952 4.7040289,-0.91321 6.7175877,-2.12134 0.451943,-0.27117 0.942819,-0.47141 1.414229,-0.70712 1.973819,-0.98691 4.309526,-1.96127 6.36403,-2.4749 1.977839,-0.49446 2.786659,-0.70711 5.303358,-0.70711 1.104604,0 4.046111,1.44562 5.656916,1.76778 2.018126,0.40363 2.97608,0.90622 4.596244,2.12135 1.186306,0.88973 1.379225,2.42823 2.474901,3.88913 1.421116,1.89482 3.719386,2.60924 6.010473,3.18201 2.39511,0.59878 4.698384,0.82104 7.071144,1.41423 1.991844,0.49796 4.241576,0.35356 6.364031,0.35356 2.305144,0 3.049388,-1.17114 4.949801,-2.12135 2.18862,-1.09431 2.514904,-2.82845 5.656916,-2.82845 2.412963,0 5.019053,0.70711 7.778259,0.70711 2.584599,0 5.175747,-2.05754 7.424702,-3.18201 2.597554,-1.29878 5.359364,-1.75379 8.131816,-1.06068 2.485466,0.62137 4.891418,-0.70711 7.778259,-0.70711 3.165661,0 5.799641,-1.69642 8.485371,-0.35356 3.18356,1.59178 4.65132,0.54366 7.77826,-0.70711 2.22279,-0.88912 5.44337,0.49356 6.71759,1.76778 1.52304,1.52304 4.65583,2.69896 7.07114,3.18202 2.42689,0.48538 3.37267,1.76778 6.36403,1.76778 2.4749,0 4.94981,0 7.42471,0 1.40528,0 2.46429,0.0686 3.88913,0.35356 z"
             style="fill:#b3b3b3;fill-rule:evenodd;stroke:none"
             id="path6452"
             inkscape:connector-curvature="0" />
          <path
             d="m 144.95847,207.17154 c -0.12573,-1.25563 -2.02851,-3.07136 -2.4749,-5.30336 -0.4992,-2.49598 -1.96544,-3.97261 -2.47491,-6.01047 -0.76774,-3.07097 -1.19452,-5.59506 -2.12134,-8.83893 -1.45563,-5.0947 -2.48472,-8.6867 -4.24269,-13.08162 -2.25547,-5.63868 -6.42147,-3.59301 -9.54604,-6.71759 -1.64289,-1.64289 -3.17111,-3.1711 -4.9498,-4.9498 -1.64467,-1.64466 -2.88637,-3.94704 -3.88913,-4.9498 -1.97234,-1.97234 -4.45199,-4.87531 -6.36403,-7.4247 -1.72759,-2.30345 -2.93625,-4.70403 -4.59625,-6.36403 -2.31707,-2.31707 -3.48758,-5.56093 -4.949797,-8.48537 -2.752549,-5.5051 -6.593289,-11.00309 -8.838931,-16.61719 -1.246275,-3.11569 -2.474901,-4.98588 -2.474901,-8.13182 0,-1.8864 -2.192203,-3.39435 -2.828458,-4.24269 -0.35304,-0.47072 -4.909929,-2.52169 -6.010473,-3.18201 -3.521025,-2.11262 -7.138248,-3.507194 -9.546045,-6.717589 -1.28898,-1.71864 -2.352017,-2.936248 -3.182015,-4.596244 -1.027958,-2.055916 -1.74681,-3.166283 -3.182015,-4.242687 -2.040946,-1.530709 -2.432853,-2.121344 -4.949801,-2.121344 -1.756885,0 -2.90639,4.398551 -3.535573,5.656916 -2.204414,4.408828 -1.434141,8.333486 -4.949801,12.728058 -3.084622,3.85578 -3.729073,6.58954 -7.424702,9.54605 -3.045819,2.43665 -5.372893,2.96752 -7.071145,6.36403 -1.901515,3.80303 -3.935647,7.87129 -6.010473,12.02094 -1.598659,3.19732 -2.772065,5.24697 -5.303358,7.77826 -2.870307,2.87031 -2.342385,7.2482 -3.182015,10.60672 -0.710147,2.84059 -5.648189,9.8647 -7.071145,15.55652 -0.724262,2.89705 -1.805236,6.43893 -3.182015,9.19249 -1.2361087,2.47221 -1.8325032,5.20867 -2.4749006,7.77826 -0.5579018,2.2316 -2.3268918,-2.35983 -3.8891296,3.88913 -0.9070276,3.62811 -2.0272376,7.04827 -2.8284579,10.25316 -0.51051765,2.04207 -0.3944814,4.49762 1.414229,4.9498 3.6998998,0.92497 1.3330901,1.96485 0.7071144,2.12134 -2.2780815,0.56952 4.7040289,-0.91321 6.7175877,-2.12134 0.451943,-0.27117 0.942819,-0.47141 1.414229,-0.70712 1.973819,-0.98691 4.309526,-1.96127 6.36403,-2.4749 1.977839,-0.49446 2.786659,-0.70711 5.303358,-0.70711 1.104604,0 4.046111,1.44562 5.656916,1.76778 2.018126,0.40363 2.97608,0.90622 4.596244,2.12135 1.186306,0.88973 1.379225,2.42823 2.474901,3.88913 1.421116,1.89482 3.719386,2.60924 6.010473,3.18201 2.39511,0.59878 4.698384,0.82104 7.071144,1.41423 1.991844,0.49796 4.241576,0.35356 6.364031,0.35356 2.305144,0 3.049388,-1.17114 4.949801,-2.12135 2.18862,-1.09431 2.514904,-2.82845 5.656916,-2.82845 2.412963,0 5.019053,0.70711 7.778259,0.70711 2.584599,0 5.175747,-2.05754 7.424702,-3.18201 2.597554,-1.29878 5.359364,-1.75379 8.131816,-1.06068 2.485466,0.62137 4.891418,-0.70711 7.778259,-0.70711 3.165661,0 5.799641,-1.69642 8.485371,-0.35356 3.18356,1.59178 4.65132,0.54366 7.77826,-0.70711 2.22279,-0.88912 5.44337,0.49356 6.71759,1.76778 1.52304,1.52304 4.65583,2.69896 7.07114,3.18202 2.42689,0.48538 3.37267,1.76778 6.36403,1.76778 2.4749,0 4.94981,0 7.42471,0 1.40528,0 2.46429,0.0686 3.88913,0.35356 z"
             style="fill:#668000;fill-opacity:1;fill-rule:evenodd;stroke:none;filter:url(#filter3941)"
             id="path9127"
             inkscape:connector-curvature="0" />
        </g>
        <path
           d="m 34.174815,132.17931 c 0,-0.86036 0,-4.11054 0,-6.13497 0,-2.47188 1.248395,-2.16189 2.256751,-4.2178 0.868884,-1.77154 1.745101,-2.33865 2.632878,-4.60122 0.706773,-1.80129 2.03917,-2.57315 3.761253,-3.45093 1.839669,-0.93771 3.662097,-2.54927 4.889629,-4.2178 1.693262,-2.30156 2.619381,-4.32267 4.137379,-6.90185 1.545637,-2.62612 2.84234,-5.397184 4.513503,-7.668711 2.034883,-2.765914 3.1404,-7.553187 4.88963,-11.119644 0.676994,-1.380307 0.67506,-3.676979 1.504501,-5.368103 0.445704,-0.908736 4.311074,-0.383437 5.265754,-0.383437 1.927269,0 3.320108,1.117167 4.889629,1.91718 1.989122,1.013892 2.632877,0.86636 2.632877,3.450924 0,2.128083 1.962095,4.300847 3.009003,5.368103 1.317879,1.343495 2.508474,2.300616 4.889629,2.300616 1.053799,0 3.931958,3.537935 4.513504,3.834361 1.730621,0.882128 4.137379,1.474098 4.137379,3.450918 0,1.834343 -1.677551,3.627353 -2.632878,4.601243 -2.13658,2.1781 -3.575019,4.41138 -5.641878,6.5184 -1.700738,1.73379 -2.904788,4.45348 -3.38513,6.90185 -0.514932,2.6247 -2.006029,4.72916 -2.632876,7.28528 -0.463079,1.88832 0,4.54396 0,6.51841 0,2.51141 3.651048,3.77819 5.265754,4.60124 1.413198,0.72033 2.730161,3.46418 3.009003,4.60124 0.378293,1.54258 -1.245508,2.1812 0.376124,3.83435 1.445898,1.474 2.121705,3.66711 2.632878,5.75154 0.828616,3.37888 -0.790138,0.38344 -3.761253,0.38344 -1.130984,0 -4.846016,-2.45899 -5.64188,-3.06749 -2.619893,-2.00311 -4.534241,-2.99926 -7.522506,-4.2178 -2.377187,-0.96935 -2.864656,-4.39605 -3.385128,-6.51841 -0.639081,-2.60602 0.55493,-4.03552 -1.128376,-5.75154 -1.387134,-1.4141 -2.580086,-3.42402 -4.137379,-4.21779 -2.323126,-1.18414 -2.948619,-2.26985 -4.513504,-3.06749 -1.253518,-0.63894 -3.905707,-0.38344 -5.265754,-0.38344 -3.143332,0 -2.786941,0.78529 -3.385127,3.83436 -0.595245,3.03407 -2.807387,2.68405 -5.265756,2.68405 -2.183699,0 -3.317612,2.68406 -6.018004,2.68406 -2.037621,0 -2.570814,0.29408 -4.889629,0.76686 z"
           style="fill:url(#linearGradient4034);fill-opacity:1;fill-rule:evenodd;stroke:none"
           id="path10915"
           inkscape:connector-curvature="0"
           inkscape:transform-center-x="21.145146"
           inkscape:transform-center-y="-32.565474" />
      </g>
    </g>
  </g>
</svg>
